HIERARCHY
ROOT hip
{
  OFFSET 0 0 0
  CHANNELS 6 Xposition Yposition Zposition Zrotation Yrotation Xrotation
  JOINT abdomen
  {
    OFFSET 0 20.6881 -0.73152
    CHANNELS 3 Zrotation Xrotation Yrotation
    JOINT chest
    {
      OFFSET 0 11.7043 -0.48768
      CHANNELS 3 Zrotation Xrotation Yrotation
      JOINT neck
      {
        OFFSET 0 22.1894 -2.19456
        CHANNELS 3 Zrotation Xrotation Yrotation
        JOINT head
        {
          OFFSET -0.24384 7.07133 1.2192
          CHANNELS 3 Zrotation Xrotation Yrotation
          JOINT leftEye
          {
            OFFSET 4.14528 8.04674 8.04672
            CHANNELS 3 Zrotation Xrotation Yrotation
            End Site
            {
              OFFSET 1 0 0
            }
          }
          JOINT rightEye
          {
            OFFSET -3.6576 8.04674 8.04672
            CHANNELS 3 Zrotation Xrotation Yrotation
            End Site
            {
              OFFSET 1 0 0
            }
          }
        }
      }
      JOINT rCollar
      {
        OFFSET -2.68224 19.2634 -4.8768
        CHANNELS 3 Zrotation Xrotation Yrotation
        JOINT rShldr
        {
          OFFSET -8.77824 -1.95073 1.46304
          CHANNELS 3 Zrotation Xrotation Yrotation
          JOINT rForeArm
          {
            OFFSET -28.1742 -1.7115 0.48768
            CHANNELS 3 Zrotation Xrotation Yrotation
            JOINT rHand
            {
              OFFSET -22.5879 0.773209 7.07136
              CHANNELS 3 Zrotation Xrotation Yrotation
              JOINT rThumb1
              {
                OFFSET -1.2192 -0.487915 3.41376
                CHANNELS 3 Zrotation Xrotation Yrotation
                JOINT rThumb2
                {
                  OFFSET -3.37035 -0.52449 3.41376
                  CHANNELS 3 Zrotation Xrotation Yrotation
                  End Site
                  {
                    OFFSET -1.78271 -1.18214 1.43049
                  }
                }
              }
              JOINT rIndex1
              {
                OFFSET -7.75947 0.938293 5.60832
                CHANNELS 3 Zrotation Xrotation Yrotation
                JOINT rIndex2
                {
                  OFFSET -2.54057 -0.884171 1.56538
                  CHANNELS 3 Zrotation Xrotation Yrotation
                  End Site
                  {
                    OFFSET -1.62519 -0.234802 1.16502
                  }
                }
              }
              JOINT rMid1
              {
                OFFSET -8.24714 1.18213 3.41376
                CHANNELS 3 Zrotation Xrotation Yrotation
                JOINT rMid2
                {
                  OFFSET -3.10165 -0.590103 1.0647
                  CHANNELS 3 Zrotation Xrotation Yrotation
                  End Site
                  {
                    OFFSET -2.48547 -0.328903 0.83742
                  }
                }
              }
              JOINT rRing1
              {
                OFFSET -8.82822 0.546677 1.51678
                CHANNELS 3 Zrotation Xrotation Yrotation
                JOINT rRing2
                {
                  OFFSET -2.60934 -0.819778 -0.0198488
                  CHANNELS 3 Zrotation Xrotation Yrotation
                  End Site
                  {
                    OFFSET -2.33842 -0.294052 0.168128
                  }
                }
              }
              JOINT rPinky1
              {
                OFFSET -8.27202 -0.0477905 -0.4584
                CHANNELS 3 Zrotation Xrotation Yrotation
                JOINT rPinky2
                {
                  OFFSET -1.82734 -0.647385 -0.700984
                  CHANNELS 3 Zrotation Xrotation Yrotation
                  End Site
                  {
                    OFFSET -1.69225 -0.51767 -0.607171
                  }
                }
              }
            }
          }
        }
      }
      JOINT lCollar
      {
        OFFSET 2.68224 19.2634 -4.8768
        CHANNELS 3 Zrotation Xrotation Yrotation
        JOINT lShldr
        {
          OFFSET 8.77824 -1.95073 1.46304
          CHANNELS 3 Zrotation Xrotation Yrotation
          JOINT lForeArm
          {
            OFFSET 28.1742 -1.7115 0.48768
            CHANNELS 3 Zrotation Xrotation Yrotation
            JOINT lHand
            {
              OFFSET 22.5879 0.773209 7.07136
              CHANNELS 3 Zrotation Xrotation Yrotation
              JOINT lThumb1
              {
                OFFSET 1.2192 -0.487915 3.41376
                CHANNELS 3 Zrotation Xrotation Yrotation
                JOINT lThumb2
                {
                  OFFSET 3.37035 -0.52449 3.41376
                  CHANNELS 3 Zrotation Xrotation Yrotation
                  End Site
                  {
                    OFFSET 1.78271 -1.18214 1.43049
                  }
                }
              }
              JOINT lIndex1
              {
                OFFSET 7.75947 0.938293 5.60832
                CHANNELS 3 Zrotation Xrotation Yrotation
                JOINT lIndex2
                {
                  OFFSET 2.54057 -0.884171 1.56538
                  CHANNELS 3 Zrotation Xrotation Yrotation
                  End Site
                  {
                    OFFSET 1.62519 -0.234802 1.16502
                  }
                }
              }
              JOINT lMid1
              {
                OFFSET 8.24714 1.18213 3.41376
                CHANNELS 3 Zrotation Xrotation Yrotation
                JOINT lMid2
                {
                  OFFSET 3.10165 -0.590103 1.0647
                  CHANNELS 3 Zrotation Xrotation Yrotation
                  End Site
                  {
                    OFFSET 2.48547 -0.328903 0.83742
                  }
                }
              }
              JOINT lRing1
              {
                OFFSET 8.82822 0.546677 1.51678
                CHANNELS 3 Zrotation Xrotation Yrotation
                JOINT lRing2
                {
                  OFFSET 2.60934 -0.819778 -0.0198488
                  CHANNELS 3 Zrotation Xrotation Yrotation
                  End Site
                  {
                    OFFSET 2.33842 -0.294052 0.168128
                  }
                }
              }
              JOINT lPinky1
              {
                OFFSET 8.27202 -0.0477905 -0.4584
                CHANNELS 3 Zrotation Xrotation Yrotation
                JOINT lPinky2
                {
                  OFFSET 1.82734 -0.647385 -0.700984
                  CHANNELS 3 Zrotation Xrotation Yrotation
                  End Site
                  {
                    OFFSET 1.69225 -0.51767 -0.607171
                  }
                }
              }
            }
          }
        }
      }
    }
  }
  JOINT rButtock
  {
    OFFSET -8.77824 4.35084 1.2192
    CHANNELS 3 Zrotation Xrotation Yrotation
    JOINT rThigh
    {
      OFFSET 0 -1.70687 -2.19456
      CHANNELS 3 Zrotation Xrotation Yrotation
      JOINT rShin
      {
        OFFSET 0 -36.8199 0.73152
        CHANNELS 3 Zrotation Xrotation Yrotation
        JOINT rFoot
        {
          OFFSET 0.73152 -45.1104 -5.12064
          CHANNELS 3 Zrotation Xrotation Yrotation
          End Site
          {
            OFFSET -1.1221 -3.69964 12.103
          }
        }
      }
    }
  }
  JOINT lButtock
  {
    OFFSET 8.77824 4.35084 1.2192
    CHANNELS 3 Zrotation Xrotation Yrotation
    JOINT lThigh
    {
      OFFSET 0 -1.70687 -2.19456
      CHANNELS 3 Zrotation Xrotation Yrotation
      JOINT lShin
      {
        OFFSET 0 -36.8199 0.73152
        CHANNELS 3 Zrotation Xrotation Yrotation
        JOINT lFoot
        {
          OFFSET -0.73152 -45.1104 -5.12064
          CHANNELS 3 Zrotation Xrotation Yrotation
          End Site
          {
            OFFSET 1.1221 -3.69964 12.103
          }
        }
      }
    }
  }
}
MOTION
Frames:	4
Frame Time:	0.00833333
-144.058 83.1573 11.2689 -177.842 7.7152 -167.485 1.4745 -19.7246 3.16295 2.68736 1.16367 1.30584 -1.66594 22.9239 1.1443 8.5634 -30.3185 4.82886 -0.0 0.0 0.0 -0.0 0.0 0.0 -5.35122e-15 -2.34169e-13 8.67509e-15 3.65163 51.2874 98.0359 -17.824 -54.8534 119.268 -0.745439 -23.7457 -3.54467 3.9453e-10 -3.70503e-11 2.57902e-10 6.75737e-10 -6.21327e-11 4.54881e-10 3.94534e-10 -3.70489e-11 2.57901e-10 7.73091 5.47488 0.417314 3.94533e-10 -3.70503e-11 2.57902e-10 2.90554 0.965183 0.102902 3.94536e-10 -3.70515e-11 2.57903e-10 10.2786 0.731801 0.0259123 3.94527e-10 -3.70518e-11 2.57907e-10 2.22167 -0.733487 -0.20892 -5.50775e-15 -2.34169e-13 8.4794e-15 -87.6739 -6.90219 3.65131 6.05535 -2.06844 -10.5849 10.5331 64.0325 -16.7724 2.34241e-09 1.49455e-09 8.89587e-10 4.06385e-09 2.51994e-09 1.41055e-09 2.3424e-09 1.49455e-09 8.89592e-10 -7.73091 5.47488 -0.417314 2.3424e-09 1.49455e-09 8.89587e-10 -2.90554 0.965183 -0.102902 2.3424e-09 1.49455e-09 8.89594e-10 -10.2786 0.731801 -0.0259123 2.34241e-09 1.49455e-09 8.89592e-10 -2.22167 -0.733487 0.20892 -2.03217e-16 0.0 -3.88251e-19 1.82958 -22.7894 6.72976 -0.0981821 22.7659 0.359265 -2.94101 -5.74067 -13.3185 2.03217e-16 0.0 3.88251e-19 -1.63833 -23.1947 -14.1358 0.120884 27.652 -0.587269 5.29581 -16.4083 13.137
-144.089 83.1568 11.2799 -177.876 7.75 -167.449 1.41278 -19.7698 3.12515 2.65693 1.16071 1.29972 -1.62129 22.9718 1.16751 8.48058 -30.4298 4.85824 -0.0 0.0 0.0 -0.0 0.0 0.0 2.87216e-14 -1.59512e-13 8.79774e-14 3.78748 51.3884 97.7598 -17.8282 -54.8507 119.258 -0.732826 -23.558 -3.51319 6.75888e-10 -1.12763e-10 2.1376e-10 1.16369e-09 -1.92805e-10 3.83671e-10 6.75892e-10 -1.12764e-10 2.1376e-10 7.73091 5.47488 0.417314 6.75891e-10 -1.12766e-10 2.13762e-10 2.90554 0.965183 0.102902 6.75893e-10 -1.12767e-10 2.13762e-10 10.2786 0.731801 0.0259123 6.75884e-10 -1.12766e-10 2.13767e-10 2.22167 -0.733487 -0.20892 2.85792e-14 -1.59514e-13 8.77432e-14 -87.6169 -6.91708 3.67183 6.05619 -2.06883 -10.5864 10.4685 63.9383 -16.7006 1.83011e-09 1.03965e-09 4.53386e-10 3.16204e-09 1.72606e-09 6.8571e-10 1.8301e-09 1.03965e-09 4.53386e-10 -7.73091 5.47488 -0.417314 1.8301e-09 1.03965e-09 4.5338e-10 -2.90554 0.965183 -0.102902 1.8301e-09 1.03965e-09 4.5339e-10 -10.2786 0.731801 -0.0259123 1.83011e-09 1.03966e-09 4.53389e-10 -2.22167 -0.733487 0.20892 -2.03217e-16 0.0 -3.88251e-19 1.77202 -22.8651 6.74439 -0.098573 22.8137 0.360975 -2.95125 -5.80171 -13.2921 2.03217e-16 0.0 3.88251e-19 -1.70345 -23.2071 -14.1889 0.120294 27.6039 -0.586153 5.29805 -16.3725 13.1639
-144.14 83.1574 11.2818 -178.005 7.7573 -167.456 1.36718 -19.7952 3.11096 2.61599 1.15521 1.29895 -1.59068 22.9904 1.17602 8.46425 -30.482 4.87622 -0.0 0.0 0.0 -0.0 0.0 0.0 3.47004e-14 -1.01777e-13 8.00108e-14 3.99254 51.5312 97.4052 -17.8668 -54.827 119.172 -0.720191 -23.3685 -3.48147 5.91292e-10 -1.04144e-10 6.59711e-11 1.02043e-09 -1.78245e-10 1.26068e-10 5.91296e-10 -1.04147e-10 6.59711e-11 7.73091 5.47488 0.417314 5.91295e-10 -1.04149e-10 6.59742e-11 2.90554 0.965183 0.102902 5.91296e-10 -1.0415e-10 6.5975e-11 10.2786 0.731801 0.0259123 5.91288e-10 -1.04147e-10 6.59806e-11 2.22167 -0.733487 -0.20892 3.45784e-14 -1.0178e-13 7.97623e-14 -87.5524 -7.02167 3.68212 6.04818 -2.06526 -10.572 10.4912 63.9719 -16.7259 1.45294e-09 8.26349e-10 3.75382e-10 2.51202e-09 1.37526e-09 5.71228e-10 1.45293e-09 8.26348e-10 3.75379e-10 -7.73091 5.47488 -0.417314 1.45294e-09 8.2635e-10 3.75372e-10 -2.90554 0.965183 -0.102902 1.45293e-09 8.26353e-10 3.75383e-10 -10.2786 0.731801 -0.0259123 1.45295e-09 8.26357e-10 3.75382e-10 -2.22167 -0.733487 0.20892 -2.03217e-16 0.0 -3.88251e-19 1.72602 -22.9242 6.73661 -0.0988705 22.8517 0.362396 -2.96106 -5.85362 -13.2756 2.03217e-16 0.0 3.88251e-19 -1.74539 -23.2221 -14.2048 0.119875 27.5684 -0.585115 5.29209 -16.3495 13.1628
-144.159 83.1602 11.2697 -177.999 7.8234 -167.523 1.34697 -19.7874 3.14441 2.55903 1.14905 1.30917 -1.58544 22.9601 1.16339 8.55565 -30.4468 4.88044 -0.0 0.0 0.0 -0.0 0.0 0.0 -9.50821e-15 -6.23242e-14 -8.99986e-14 4.3287 51.711 96.9281 -17.9518 -54.7743 118.982 -0.708737 -23.1942 -3.4524 -1.89228e-10 6.26101e-11 -3.01907e-10 -3.22689e-10 1.08645e-10 -5.25761e-10 -1.89226e-10 6.26082e-11 -3.01907e-10 7.73091 5.47488 0.417314 -1.89225e-10 6.26068e-11 -3.01903e-10 2.90554 0.965183 0.102902 -1.89226e-10 6.26055e-11 -3.01902e-10 10.2786 0.731801 0.0259123 -1.89233e-10 6.26085e-11 -3.01895e-10 2.22167 -0.733487 -0.20892 -9.59631e-15 -6.23271e-14 -9.0218e-14 -87.479 -7.2267 3.67115 6.02759 -2.05607 -10.5351 10.6326 64.1773 -16.8832 1.24228e-09 1.01693e-09 9.49531e-10 2.18434e-09 1.77366e-09 1.57228e-09 1.24227e-09 1.01693e-09 9.49528e-10 -7.73091 5.47488 -0.417314 1.24227e-09 1.01693e-09 9.49522e-10 -2.90554 0.965183 -0.102902 1.24227e-09 1.01693e-09 9.49531e-10 -10.2786 0.731801 -0.0259123 1.24228e-09 1.01694e-09 9.49528e-10 -2.22167 -0.733487 0.20892 -2.03217e-16 0.0 -3.88251e-19 1.69297 -22.9587 6.68757 -0.0988403 22.8793 0.363585 -2.97166 -5.90266 -13.2675 2.03217e-16 0.0 3.88251e-19 -1.76204 -23.2308 -14.1901 0.119699 27.5475 -0.584305 5.28268 -16.3357 13.1486
